PathFileType	4	(X/Y/Z)	 s06c0201.trc
DataRate	CameraRate	NumFrames	NumMarkers	Units	OrigDataRate	OrigDataStartFrame	OrigNumFrames
200	200	5	49	mm	200	1501	2000
Frame#	Time	racr			lacr			c7			jug			rlel			rdr			llel			ldr			s2			lic			ric			lasi			rasi			rpsi			lpsi			rgt			lgt			rth1			rth2			rth3			rth4			rlfc			rmfc			rsh1			rsh2			rsh3			rsh4			rlmal			rmmal			rcal			rtoe			rmt5			lth1			lth2			lth4			lth3			llfc			lmfc			llmal			lcal			lmt5			lsh1			lsh2			lsh3			lsh4			ltoe			SBIKE			LBIKE			RBIKE			
		X1	Y1	Z1	X2	Y2	Z2	X3	Y3	Z3	X4	Y4	Z4	X5	Y5	Z5	X6	Y6	Z6	X7	Y7	Z7	X8	Y8	Z8	X9	Y9	Z9	X10	Y10	Z10	X11	Y11	Z11	X12	Y12	Z12	X13	Y13	Z13	X14	Y14	Z14	X15	Y15	Z15	X16	Y16	Z16	X17	Y17	Z17	X18	Y18	Z18	X19	Y19	Z19	X20	Y20	Z20	X21	Y21	Z21	X22	Y22	Z22	X23	Y23	Z23	X24	Y24	Z24	X25	Y25	Z25	X26	Y26	Z26	X27	Y27	Z27	X28	Y28	Z28	X29	Y29	Z29	X30	Y30	Z30	X31	Y31	Z31	X32	Y32	Z32	X33	Y33	Z33	X34	Y34	Z34	X35	Y35	Z35	X36	Y36	Z36	X37	Y37	Z37	X38	Y38	Z38	X39	Y39	Z39	X40	Y40	Z40	X41	Y41	Z41	X42	Y42	Z42	X43	Y43	Z43	X44	Y44	Z44	X45	Y45	Z45	X46	Y46	Z46	X47	Y47	Z47	X48	Y48	Z48	X49	Y49	Z49	
1501	7.5050	530.460087	1231.334391	-45.941555	563.481200	1203.532115	-359.166384	551.379935	1312.633275	-203.106795	507.000090	1142.646483	-192.324712	474.338305	996.011041	75.172684	644.670234	920.407904	-59.664470	467.362342	992.607311	-510.248487	650.589720	921.811690	-419.883287	-0.505935	1127.087806	-246.492997	174.252594	1101.944240	-397.811402	125.043076	1102.115561	-68.220580	193.033377	1053.636145	-355.685485	166.455660	1068.277712	-101.413057	30.377222	1171.043636	-217.431578	32.732253	1163.837954	-279.232109	100.360616	1017.747502	-45.723084	159.913771	1037.299574	-431.323999	191.349910	914.704734	-20.724249	259.944050	855.272735	-21.978889	288.631043	773.035834	-30.710284	289.668331	877.513013	-33.711225	329.362554	672.294605	-44.413656	331.186207	647.548294	-150.722823	301.609711	551.392936	-24.262357	308.524649	466.214333	-43.804399	272.945761	387.201133	-52.233338	333.152002	467.148829	-76.957412	250.277040	311.928985	-59.308290	286.972862	315.772527	-152.699669	187.470079	291.245592	-109.132690	455.883833	225.813568	-99.260126	354.320564	222.848153	-33.206195	227.169570	954.827064	-439.847842	308.669114	925.106909	-432.216454	327.910250	952.558607	-416.002066	366.197604	856.863462	-432.209745	406.466123	759.020904	-403.685058	402.879978	745.138384	-288.789089	104.728822	554.856725	-377.761833	41.357540	591.610595	-329.308159	117.525759	411.115779	-404.011880	330.079487	684.034490	-419.401193	272.029380	624.905027	-392.466817	190.501848	593.185217	-395.151288	288.365234	611.609813	-360.452472	172.430192	342.568494	-346.831215	-203.098354	869.868522	-214.104323	-48.575694	83.390323	-419.640702	-50.177328	79.640829	-22.300887	
1502	7.5100	530.121486	1231.828191	-46.339200	562.728884	1204.639770	-360.570336	551.373545	1313.249374	-204.325749	506.164948	1143.517064	-193.424358	474.351587	996.648431	75.647517	644.734406	920.718107	-59.073662	467.360371	992.942295	-511.177479	650.560552	922.208064	-420.327956	-0.205405	1127.041194	-244.731481	173.413086	1102.472968	-397.403584	126.252009	1102.414179	-66.810067	193.127506	1054.591059	-354.704144	167.765522	1068.774773	-100.145224	30.634225	1171.095155	-215.834390	32.572730	1163.980104	-277.525333	100.628453	1016.296469	-45.077695	160.173998	1039.928127	-430.238786	189.782449	910.769513	-20.125153	257.360410	849.189316	-22.022563	282.917307	766.335028	-30.971040	286.076541	870.007870	-34.123935	321.659156	665.072208	-44.051304	322.215477	640.388118	-150.718871	294.566228	544.936978	-23.837217	302.403114	459.945057	-43.355944	267.691927	380.469601	-52.078954	327.019745	461.049981	-76.646198	245.430367	305.452560	-58.924472	282.436442	308.512615	-152.319453	182.807814	285.688941	-108.982410	450.042373	215.419620	-98.819023	348.394581	214.272904	-33.166917	228.141934	958.626689	-438.745394	310.320781	930.617993	-431.326037	329.149364	958.745453	-415.705608	369.310792	863.348783	-432.062724	412.399437	767.654638	-402.612729	408.818039	753.733123	-287.273638	110.324228	563.762040	-377.398119	46.366085	599.829369	-328.938662	124.054885	420.100735	-403.734153	336.384510	692.634146	-418.184453	278.205407	633.607648	-391.525248	196.505088	601.862023	-394.486450	294.110641	619.780635	-358.598924	179.565332	351.981435	-346.780615	-203.114637	869.877400	-213.878832	-48.562446	83.411422	-419.615978	-50.195130	79.644243	-22.263578	
1503	7.5150	530.106941	1232.656847	-46.975653	562.074045	1205.430971	-361.981299	551.675342	1313.889226	-205.592867	505.436997	1144.481927	-194.398657	474.593027	997.640604	75.978427	645.189656	921.372288	-59.044527	467.363661	993.260832	-511.955375	650.513155	922.530101	-420.411356	-0.095857	1127.601881	-242.586122	172.444273	1103.312731	-396.965161	127.506967	1103.018759	-65.842789	192.841105	1055.931480	-353.930069	168.832180	1069.370125	-99.468577	30.936462	1171.748813	-214.009699	32.455497	1164.492237	-275.521850	101.312123	1015.464741	-44.077963	159.814211	1043.152051	-429.054992	188.664147	907.647923	-18.239044	253.469924	843.918586	-21.571537	276.895822	760.345145	-31.606556	283.417517	864.097603	-33.485285	313.844438	658.871130	-43.841056	313.120712	634.392188	-150.979714	287.462362	539.474336	-23.436335	296.062879	454.301457	-43.087464	262.099778	374.724402	-51.786714	320.705061	455.907437	-76.137988	240.651220	299.080822	-59.122789	277.668226	301.856792	-151.995239	177.842345	281.111612	-108.799559	443.668218	205.259046	-99.345672	342.037547	206.078481	-33.154240	228.558272	962.683166	-437.606263	311.430486	936.620933	-430.786813	329.837119	965.457867	-415.838064	372.159349	870.997435	-430.138845	417.925422	776.722382	-401.349214	414.428275	762.942048	-285.576934	116.071871	572.134056	-376.706558	51.289292	607.640258	-328.561266	131.427740	429.030134	-403.937366	342.474927	701.530687	-416.922988	284.226068	642.320203	-390.361227	202.727361	610.354341	-393.342887	300.127141	628.523167	-357.600071	187.282712	361.189483	-346.616921	-203.228359	869.865381	-213.533854	-48.573448	83.453874	-419.598928	-50.184035	79.610991	-22.257037	
1504	7.5200	530.324194	1233.355651	-47.942431	561.446965	1206.069662	-363.381643	552.256228	1314.585259	-206.919804	504.759272	1145.554919	-195.723613	475.056615	998.757655	76.089850	645.749133	921.703033	-58.704991	467.341722	993.530463	-512.590521	650.678371	923.169162	-420.975444	-0.032933	1128.409338	-240.282725	171.276843	1104.447337	-396.576727	129.099911	1103.753004	-65.473608	192.247120	1057.385300	-353.165284	169.783571	1069.814718	-99.652920	31.046722	1172.682045	-211.793769	32.173974	1165.293080	-273.395039	102.355531	1015.017717	-42.991191	158.913047	1046.715567	-427.763413	186.934350	905.115054	-17.110988	249.844914	839.606280	-21.018304	271.490978	755.359402	-31.614144	280.290343	858.912055	-32.956348	306.004141	653.911669	-43.773667	304.294926	629.724328	-151.546377	280.404467	534.805495	-23.085545	289.536072	449.643336	-42.635414	256.010441	369.927275	-51.463789	314.267919	451.363068	-75.666002	235.628850	293.700375	-59.087238	272.887158	295.777918	-151.638627	172.835548	277.261545	-108.676373	436.899753	195.174061	-99.400789	335.301384	198.546787	-33.159501	228.387712	966.937730	-436.406140	311.892656	942.834053	-430.146954	329.846593	972.306831	-415.704114	374.171268	878.601292	-429.220749	423.120199	785.966265	-399.988883	419.697437	772.563647	-283.669290	121.805344	580.263645	-376.220161	56.145471	614.817111	-328.275371	138.793156	437.531381	-403.633104	348.257780	710.617907	-415.480064	290.165933	651.203502	-389.338333	208.758164	618.929590	-392.445998	306.196656	637.828698	-357.161599	195.581519	370.389523	-346.451968	-203.282648	869.876966	-213.366679	-48.574665	83.529905	-419.576588	-50.188121	79.628815	-22.231878	
1505	7.5250	530.829564	1234.289955	-49.242628	560.971946	1206.541472	-364.712869	552.951790	1315.247989	-208.378225	504.364988	1146.567467	-197.009369	475.654120	1000.094340	76.045422	646.390582	921.686642	-57.990360	467.363332	993.631438	-513.096571	650.603951	923.534475	-420.951692	0.158585	1129.580752	-237.854561	170.107960	1105.851716	-396.175833	129.928243	1104.554094	-66.104234	191.431583	1059.284901	-352.738295	169.889276	1070.306368	-100.887978	31.291901	1173.726729	-209.455468	31.895325	1166.459664	-271.069849	103.577903	1014.928766	-42.020092	157.690005	1050.637116	-426.537465	184.581969	902.946013	-16.915422	246.664764	836.057913	-20.432539	265.822659	751.450356	-31.490657	277.173893	854.710811	-32.417909	298.784086	649.626756	-43.614364	295.730442	626.173139	-152.253802	273.478042	530.584845	-22.732490	283.005138	445.592246	-42.167057	249.737592	365.575907	-51.067762	307.700013	447.266804	-75.214295	230.517268	289.238069	-58.987615	266.523670	290.344303	-151.129025	167.712169	274.258434	-108.580798	429.712065	185.577519	-99.411741	328.243252	191.484849	-33.125748	227.717603	971.432164	-435.131871	311.878485	949.283665	-429.437621	329.288481	979.237687	-415.353516	375.544088	886.658635	-428.493264	427.973276	795.391170	-398.578245	424.548847	782.283261	-281.691079	127.496976	587.973979	-375.708917	60.846281	621.325481	-327.804126	146.669627	445.848237	-403.750631	353.741214	719.904996	-414.006757	295.892769	659.994460	-388.142431	214.573314	627.469655	-391.355958	311.834197	646.548936	-355.863169	205.121006	380.319572	-347.151481	-203.374437	869.923440	-213.215170	-48.592830	83.598624	-419.550940	-50.190584	79.678045	-22.209310	
